<svg xmlns="http://www.w3.org/2000/svg" width="17" height="11.333" viewBox="0 0 17 11.333">
  <g id="_001-mail" data-name="001-mail" transform="translate(0 -85.333)">
    <g id="Group_469" data-name="Group 469" transform="translate(0 85.333)">
      <path id="Path_327" data-name="Path 327" d="M16.128,85.333H.872A.874.874,0,0,0,0,86.2v9.59a.874.874,0,0,0,.872.872H16.128A.874.874,0,0,0,17,95.795V86.2A.874.874,0,0,0,16.128,85.333Zm-.327.654L9,91.087a.911.911,0,0,1-1,0l-6.8-5.1Zm-3.632,5.437L15.874,96l.012.012H1.114L1.126,96l3.705-4.577a.327.327,0,0,0-.508-.412L.654,95.544V86.4L7.606,91.61a1.561,1.561,0,0,0,1.787,0L16.346,86.4v9.149l-3.669-4.532a.327.327,0,0,0-.508.412Z" transform="translate(0 -85.333)"/>
    </g>
  </g>
</svg>
