<svg xmlns="http://www.w3.org/2000/svg" width="11.281" height="19.875" viewBox="0 0 11.281 19.875">
  <path id="_003-facebook" data-name="003-facebook" d="M7.468,19.875H4.285a.965.965,0,0,1-.964-.964V11.732H1.464A.965.965,0,0,1,.5,10.768V7.692a.965.965,0,0,1,.964-.964H3.321V5.187A5.245,5.245,0,0,1,4.708,1.429,5,5,0,0,1,8.391,0l2.427,0a.965.965,0,0,1,.962.964V3.824a.965.965,0,0,1-.964.964H9.183c-.5,0-.625.1-.652.131-.045.051-.1.194-.1.591V6.727h2.262a.98.98,0,0,1,.477.121.967.967,0,0,1,.5.843v3.076a.965.965,0,0,1-.964.964H8.432v7.179A.965.965,0,0,1,7.468,19.875ZM4.486,18.71H7.267v-7.5a.644.644,0,0,1,.644-.644H10.5V7.893H7.91a.644.644,0,0,1-.644-.644V5.51a1.984,1.984,0,0,1,.39-1.362,1.975,1.975,0,0,1,1.526-.525h1.433V1.169l-2.226,0a3.678,3.678,0,0,0-3.9,4.022V7.249a.644.644,0,0,1-.644.644H1.665v2.674H3.843a.644.644,0,0,1,.644.644Zm6.33-17.541h0Zm0,0" transform="translate(-0.5)"/>
</svg>
