<svg id="_002-instagram" data-name="002-instagram" xmlns="http://www.w3.org/2000/svg" width="17.979" height="17.979" viewBox="0 0 17.979 17.979">
  <path id="Path_323" data-name="Path 323" d="M13.112,0H4.867A4.872,4.872,0,0,0,0,4.867v8.246a4.872,4.872,0,0,0,4.867,4.867h8.246a4.872,4.872,0,0,0,4.867-4.867V4.867A4.872,4.872,0,0,0,13.112,0Zm3.813,13.112a3.817,3.817,0,0,1-3.813,3.813H4.867a3.817,3.817,0,0,1-3.813-3.813V4.867A3.817,3.817,0,0,1,4.867,1.054h8.246a3.817,3.817,0,0,1,3.813,3.813Zm0,0"/>
  <path id="Path_324" data-name="Path 324" d="M120.92,116a4.916,4.916,0,1,0,4.916,4.916A4.922,4.922,0,0,0,120.92,116Zm0,8.778a3.862,3.862,0,1,1,3.862-3.862A3.866,3.866,0,0,1,120.92,124.782Zm0,0" transform="translate(-111.93 -111.93)"/>
  <path id="Path_325" data-name="Path 325" d="M359.429,66.285a1.453,1.453,0,1,0,1.453,1.453A1.454,1.454,0,0,0,359.429,66.285Zm0,1.851a.4.4,0,1,1,.4-.4A.4.4,0,0,1,359.429,68.136Zm0,0" transform="translate(-345.406 -63.958)"/>
</svg>
