<svg xmlns="http://www.w3.org/2000/svg" width="14.061" height="20" viewBox="0 0 14.061 20">
  <path id="_005-pin" data-name="005-pin" d="M7.53,20l-.423-.455a38.049,38.049,0,0,1-3.043-3.833C1.979,12.715.8,10.087.559,7.9A6.925,6.925,0,0,1,.5,7.03a7.03,7.03,0,1,1,14,.857c-.235,2.187-1.413,4.818-3.5,7.819a38.047,38.047,0,0,1-3.049,3.839Zm0-18.843A5.88,5.88,0,0,0,1.657,7.03a5.778,5.778,0,0,0,.051.729v.01C2.148,11.782,6.2,16.743,7.53,18.281c1.336-1.539,5.394-6.507,5.822-10.521V7.75a5.793,5.793,0,0,0,.05-.721A5.881,5.881,0,0,0,7.53,1.157Zm0,10.6A4.729,4.729,0,1,1,12.258,7.03,4.734,4.734,0,0,1,7.53,11.759Zm0-8.3A3.571,3.571,0,1,0,11.1,7.03,3.576,3.576,0,0,0,7.53,3.459Zm0,0" transform="translate(-0.5)"/>
</svg>
