<svg class="phone" xmlns="http://www.w3.org/2000/svg" width="31.749" height="31.607" viewBox="0 0 31.749 31.607">
  <g id="telephone_2_" data-name="telephone (2)" transform="translate(0 -0.542)">
    <path id="Path_304" data-name="Path 304" d="M30.834,24.271l-4.589-4.591a3.27,3.27,0,0,0-2.323-.951,3.429,3.429,0,0,0-2.439,1.017L19.7,21.532a21.751,21.751,0,0,1-5.148-3.748,21.764,21.764,0,0,1-3.75-5.149l1.788-1.787a3.375,3.375,0,0,0,.061-4.764L8.06,1.5A3.256,3.256,0,0,0,5.736.542a3.433,3.433,0,0,0-2.4.974A9.825,9.825,0,0,0,.231,7.179C-.8,12.217,1.57,17.065,8.413,23.912c7.645,7.643,14.172,8.237,15.99,8.237a6.044,6.044,0,0,0,.668-.03,7.573,7.573,0,0,0,5.774-3.158A3.475,3.475,0,0,0,30.834,24.271Zm-1.523,3.453a5.6,5.6,0,0,1-4.47,2.437,4.387,4.387,0,0,1-.439.017c-1.627,0-7.487-.552-14.6-7.66C3.5,16.2,1.28,11.875,2.161,7.574A7.749,7.749,0,0,1,4.576,3.049l.059-.043.052-.052a1.479,1.479,0,0,1,1.049-.441,1.3,1.3,0,0,1,.93.378l4.589,4.589a1.4,1.4,0,0,1-.062,1.978l-2.022,2.02-.033.035a1.613,1.613,0,0,0-.175,1.876,23.934,23.934,0,0,0,4.192,5.79A23.9,23.9,0,0,0,18.93,23.36a1.781,1.781,0,0,0,.852.227,1.575,1.575,0,0,0,1.2-.55l1.9-1.9a1.472,1.472,0,0,1,1.046-.44,1.311,1.311,0,0,1,.932.375l4.586,4.588A1.55,1.55,0,0,1,29.312,27.724Z" transform="translate(0)"/>
  </g>
</svg>
