<svg xmlns="http://www.w3.org/2000/svg" width="17.246" height="17.247" viewBox="0 0 17.246 17.247">
  <g id="_004-telephone" data-name="004-telephone" transform="translate(-0.011)">
    <g id="Group_468" data-name="Group 468" transform="translate(0.011 0)">
      <path id="Path_326" data-name="Path 326" d="M16.813,12.721l-2.144-2.144a1.518,1.518,0,0,0-2.144,0l-.975.975a1.15,1.15,0,0,1-1.624,0L5.7,7.324A1.148,1.148,0,0,1,5.7,5.7l.975-.975a1.515,1.515,0,0,0,0-2.145L4.533.443a1.517,1.517,0,0,0-2.142,0l-.781.774a5.473,5.473,0,0,0,0,7.731l6.693,6.7a5.464,5.464,0,0,0,7.731,0l.78-.78A1.518,1.518,0,0,0,16.813,12.721ZM3.1,1.158a.506.506,0,0,1,.715,0L5.962,3.3a.505.505,0,0,1,0,.715l-.357.357L2.748,1.511ZM9.017,14.93l-6.693-6.7a4.443,4.443,0,0,1-.279-6L4.894,5.086a2.157,2.157,0,0,0,.094,2.953l4.224,4.228h0a2.157,2.157,0,0,0,2.953.094l2.849,2.849A4.434,4.434,0,0,1,9.017,14.93Zm7.082-.78-.357.357-2.859-2.859.357-.357a.506.506,0,0,1,.715,0L16.1,13.435A.506.506,0,0,1,16.1,14.15Z" transform="translate(-0.011 0)"/>
    </g>
  </g>
</svg>
