<svg xmlns="http://www.w3.org/2000/svg" width="519.227" height="95.506" viewBox="0 0 519.227 95.506">
  <g id="Group_473" data-name="Group 473" transform="translate(-40.75 -1022.465)">
    <path id="Path_331" data-name="Path 331" d="M-1316.182,3536.083c7.294-4.21,65.955-43,179.4-33.569,38.132,1.97,122.1,25.431,122.1,25.431s73.231,14.227,117.324,8.138c-34.839,11.461-51.291,26.125-170.1,19.877-50.791-5.059-82.28-12.751-82.28-12.751S-1262.866,3516.269-1316.182,3536.083Z" transform="translate(1357.182 -2439.953)" fill="none" stroke="#d1d1d1" stroke-width="1"/>
    <path id="Path_332" data-name="Path 332" d="M-1316.182,3536.083c7.294-4.21,65.955-43,179.4-33.569,38.132,1.97,122.1,25.431,122.1,25.431s73.231,14.227,117.324,8.138c-34.839,11.461-51.291,26.125-170.1,19.877-50.791-5.059-82.28-12.751-82.28-12.751S-1262.866,3516.269-1316.182,3536.083Z" transform="translate(1457.182 -2478.041)" fill="none" stroke="#d1d1d1" stroke-width="1"/>
  </g>
</svg>
